<?xml version="1.0" encoding="UTF-8"?> <svg xmlns="http://www.w3.org/2000/svg" xmlns:xlink="http://www.w3.org/1999/xlink" width="100px" height="100px" viewBox="0 0 100 100"> <!-- Generator: Sketch 52.6 (67491) - http://www.bohemiancoding.com/sketch --> <title>Artboard Copy 21</title> <desc>Created with Sketch.</desc> <g id="Artboard-Copy-21" stroke="none" stroke-width="1" fill="none" fill-rule="evenodd"> <circle id="Oval" stroke="#000000" stroke-width="2" cx="50" cy="50" r="47"></circle> <g id="Tilda_Icons_13ph_images-Copy" transform="translate(19.000000, 28.000000)" fill="#000000"> <path d="M60.8996377,0 L11.0996292,0 C10.4919008,0 10,0.490441059 10,1.096366 L10,7.11395354 C10,7.71987849 10.4919008,8.21031955 11.0996292,8.21031955 C11.7073576,8.21031955 12.1992585,7.71987849 12.1992585,7.11395354 L12.1992585,2.19273201 L59.8007415,2.19273201 L59.8007415,29.807268 L55.2585397,29.807268 C54.6515444,29.807268 54.1589105,30.29844 54.1589105,30.903634 C54.1589105,31.508828 54.6515444,32 55.2585397,32 L60.9003708,32 C61.5073661,32 62,31.508828 62,30.903634 L62,1.096366 C61.9992669,0.490441059 61.5073661,0 60.8996377,0 Z" id="Path"></path> <path d="M51.8934204,9 L1.10657963,9 C0.495009952,9 0,9.50411119 0,10.1269252 L0,43.8730748 C0,44.4951375 0.495009952,45 1.10657963,45 L51.8934204,45 C52.5042523,45 53,44.4951375 53,43.8730748 L53,10.1269252 C53,9.50411119 52.5042523,9 51.8934204,9 Z M50.7868407,11.2538503 L50.7868407,34.8997454 L42.5295436,34.8982428 L35.1752154,28.6828749 C34.7716827,28.3417922 34.1874087,28.3380358 33.7779742,28.6686005 L26.6206172,34.4842857 L15.7761369,22.3195042 C15.5666244,22.0843524 15.2700611,21.950624 14.9587434,21.9498727 C14.9580057,21.9498727 14.9572679,21.9498727 14.9565302,21.9498727 C14.6459502,21.9498727 14.3501246,22.0828499 14.1406122,22.3157477 L2.21315925,35.5871697 L2.21315925,11.2538503 L50.7868407,11.2538503 Z M2.21315925,42.7461497 L2.21315925,38.9251221 L14.9535793,24.7491548 L25.6800245,36.7824617 C26.0739668,37.2234651 26.734226,37.2768062 27.1893991,36.9064235 L34.4544632,31.0028382 L41.422964,36.8929004 C41.6221483,37.0611879 41.8714976,37.1528444 42.1296995,37.1528444 L50.786103,37.1550983 L50.786103,42.7476522 L2.21315925,42.7476522 L2.21315925,42.7461497 Z" id="Shape" fill-rule="nonzero"></path> <path d="M41.5,23 C43.9808274,23 46,20.9815843 46,18.5 C46,16.0191726 43.9808274,14 41.5,14 C39.0191726,14 37,16.0184157 37,18.5 C37,20.9815843 39.0191726,23 41.5,23 Z M41.5,16.2704339 C42.7298184,16.2704339 43.7295661,17.2701816 43.7295661,18.5 C43.7295661,19.7298184 42.7298184,20.7295661 41.5,20.7295661 C40.2701816,20.7295661 39.2704339,19.7290616 39.2704339,18.5 C39.2704339,17.2709384 40.2701816,16.2704339 41.5,16.2704339 Z" id="Shape" fill-rule="nonzero"></path> </g> </g> </svg> 