<?xml version="1.0" encoding="UTF-8"?> <svg xmlns="http://www.w3.org/2000/svg" xmlns:xlink="http://www.w3.org/1999/xlink" width="100px" height="100px" viewBox="0 0 100 100"> <!-- Generator: Sketch 52.6 (67491) - http://www.bohemiancoding.com/sketch --> <title>Artboard Copy 22</title> <desc>Created with Sketch.</desc> <g id="Artboard-Copy-22" stroke="none" stroke-width="1" fill="none" fill-rule="evenodd"> <circle id="Oval" stroke="#000000" stroke-width="2" cx="50" cy="50" r="47"></circle> <g id="Tilda_Icons_33_interior_stanza-Copy" transform="translate(20.000000, 30.000000)" fill="#000000"> <path d="M14,28 C14,28.552 14.419375,29 14.9375,29 L18.0625,29 C18.580625,29 19,28.552 19,28 C19,27.448 18.580625,27 18.0625,27 L14.9375,27 C14.419375,27 14,27.448 14,28 Z" id="Path"></path> <path d="M59,0 C58.8826667,0 58.7713333,0.0238487885 58.6666667,0.060946904 C58.562,0.0238487885 58.4506667,0 58.3333333,0 L55.6666667,0 C55.1146667,0 54.6666667,0.44451492 54.6666667,0.993699522 C54.6666667,1.54288412 55.1146667,1.98739904 55.6666667,1.98739904 L58,1.98739904 L58,27.1611203 L48.3333333,27.1611203 C47.7813333,27.1611203 47.3333333,27.6062977 47.3333333,28.1548198 L47.3333333,28.8159612 C47.3333333,38.0494172 39.8813333,45.012601 30,45.012601 C20.28,45.012601 12.6666667,37.6075521 12.6666667,28.1548198 C12.6666667,27.6062977 12.2193333,27.1611203 11.6666667,27.1611203 L2,27.1611203 L2,1.98739904 L4.33333333,1.98739904 C4.886,1.98739904 5.33333333,1.54288412 5.33333333,0.993699522 C5.33333333,0.44451492 4.886,0 4.33333333,0 L1.66666667,0 C1.54933333,0 1.438,0.0238487885 1.33333333,0.060946904 C1.22866667,0.0238487885 1.11733333,0 1,0 C0.447333333,0 0,0.44451492 0,0.993699522 L0,28.1548198 C0,28.7033419 0.447333333,29.1485193 1,29.1485193 L10.692,29.1485193 C11.2053333,39.2372193 19.5006667,47 30,47 C40.9033333,47 49.154,39.3485137 49.3306667,29.1485193 L59,29.1485193 C59.552,29.1485193 60,28.7033419 60,28.1548198 L60,0.993699522 C60,0.44451492 59.552,0 59,0 Z" id="Path"></path> <path d="M40,28 C40,28.552 40.42,29 40.9375,29 L44.0625,29 C44.58,29 45,28.552 45,28 C45,27.448 44.58,27 44.0625,27 L40.9375,27 C40.42,27 40,27.448 40,28 Z" id="Path"></path> <path d="M32,28 C32,28.552 32.42,29 32.9375,29 L36.0625,29 C36.58,29 37,28.552 37,28 C37,27.448 36.58,27 36.0625,27 L32.9375,27 C32.42,27 32,27.448 32,28 Z" id="Path"></path> <path d="M23,28 C23,28.552 23.419375,29 23.9375,29 L27.0625,29 C27.580625,29 28,28.552 28,28 C28,27.448 27.580625,27 27.0625,27 L23.9375,27 C23.419375,27 23,27.448 23,28 Z" id="Path"></path> <path d="M28.8571429,2 L31.1428571,2 C31.616,2 32,1.55266667 32,1 C32,0.447333333 31.616,0 31.1428571,0 L28.8571429,0 C28.3834286,0 28,0.447333333 28,1 C28,1.55266667 28.3834286,2 28.8571429,2 Z" id="Path"></path> <path d="M20.8571429,2 L23.1428571,2 C23.6165714,2 24,1.55266667 24,1 C24,0.447333333 23.6165714,0 23.1428571,0 L20.8571429,0 C20.3834286,0 20,0.447333333 20,1 C20,1.55266667 20.3834286,2 20.8571429,2 Z" id="Path"></path> <path d="M11.8571429,2 L14.1428571,2 C14.6165714,2 15,1.55266667 15,1 C15,0.447333333 14.6165714,0 14.1428571,0 L11.8571429,0 C11.3834286,0 11,0.447333333 11,1 C11,1.55266667 11.3834286,2 11.8571429,2 Z" id="Path"></path> <path d="M36.8571429,2 L39.1428571,2 C39.616,2 40,1.55266667 40,1 C40,0.447333333 39.616,0 39.1428571,0 L36.8571429,0 C36.384,0 36,0.447333333 36,1 C36,1.55266667 36.384,2 36.8571429,2 Z" id="Path"></path> <path d="M45.8571429,2 L48.1428571,2 C48.616,2 49,1.55266667 49,1 C49,0.447333333 48.616,0 48.1428571,0 L45.8571429,0 C45.384,0 45,0.447333333 45,1 C45,1.55266667 45.384,2 45.8571429,2 Z" id="Path"></path> </g> </g> </svg> 