<?xml version="1.0" encoding="UTF-8"?> <svg xmlns="http://www.w3.org/2000/svg" xmlns:xlink="http://www.w3.org/1999/xlink" width="100px" height="100px" viewBox="0 0 100 100"> <!-- Generator: Sketch 52.6 (67491) - http://www.bohemiancoding.com/sketch --> <title>Artboard Copy 17</title> <desc>Created with Sketch.</desc> <g id="Artboard-Copy-17" stroke="none" stroke-width="1" fill="none" fill-rule="evenodd"> <circle id="Oval" stroke="#000000" stroke-width="2" cx="50" cy="50" r="47"></circle> <g id="Tilda_Icons_40_Printery_brochure-Copy" transform="translate(23.000000, 22.000000)" fill="#000000"> <path d="M51.4944862,0.194348307 C51.1915906,-0.00996167494 50.8114559,-0.0561431346 50.4697964,0.069861695 L34.0747595,6.60540883 L17.9703063,6.60540883 L17.8479553,6.60540883 C17.6792091,6.59061374 17.5093508,6.61454309 17.3509042,6.67543254 L0.764693884,13.3276859 C0.320410168,13.4871488 0.0171374108,13.9067989 0,14.3858221 L0,54.843971 C0.00350454572,55.2208842 0.185709008,55.5728699 0.48920478,55.7890251 C0.792700551,56.0051804 1.18011701,56.0588891 1.52938777,55.9332288 L17.9397185,49.3976817 L34.762984,49.3976817 L34.9847452,49.3976817 L35.0918023,49.3976817 L35.1988595,49.3976817 L51.2574311,42.7532088 C51.7190234,42.5762291 52.0177164,42.1188028 51.9991841,41.6172685 L51.9991841,1.15911955 C51.9984895,0.772301535 51.8094652,0.410966111 51.4944862,0.194348307 Z M2.29408165,15.2105459 L16.8232655,9.4063576 L16.8232655,47.3280918 L2.29408165,53.1322801 L2.29408165,15.2105459 Z M19.1173471,8.9395328 L33.6465309,8.9395328 L33.6465309,47.0635577 L19.1173471,47.0635577 L19.1173471,8.9395328 Z M49.7051025,40.8392271 L35.9406126,46.4955876 L35.9406126,8.37156263 L49.7051025,2.87081047 L49.7051025,40.8392271 Z" id="Shape" fill-rule="nonzero"></path> <path d="M39.1676036,18.9988393 C39.3188603,18.9992969 39.4686113,18.9662451 39.6076862,18.9017081 L47.3203197,15.3321357 C47.8888116,15.0683855 48.1526336,14.3544718 47.9095828,13.7375648 C47.6665319,13.1206577 47.0086464,12.8343674 46.4401545,13.0981176 L38.720062,16.6515014 C38.2072499,16.8638712 37.9121277,17.4485591 38.0233351,18.0318375 C38.1345425,18.6151159 38.619236,19.0247221 39.1676036,18.9988393 Z" id="Path"></path> <path d="M39.1243778,23.9999953 C39.2751474,24.0004508 39.4244161,23.967551 39.5630431,23.9033106 L47.2508381,20.3501455 C47.6450309,20.2016854 47.9297546,19.8271566 47.9887674,19.3794647 C48.0477802,18.9317729 47.8712066,18.4858373 47.5311347,18.2237164 C47.1910629,17.9615955 46.7444024,17.9271539 46.3735075,18.134453 L38.6782775,21.679561 C38.1904418,21.9047638 37.9163835,22.4710575 38.0228021,23.0339865 C38.1292207,23.5969155 38.5866877,24.0008098 39.1169428,23.9999953 L39.1243778,23.9999953 Z" id="Path"></path> <path d="M46.4403803,23.0978227 L38.6829662,26.6676789 C38.111726,26.93145 37.8466285,27.6454205 38.0908544,28.2623766 C38.3350802,28.8793327 38.9961461,29.1656457 39.5673863,28.9018746 L47.3173054,25.3320184 C47.686833,25.1613885 47.9440058,24.7908022 47.9919494,24.3598559 C48.0398929,23.9289096 47.8713234,23.5030743 47.5497393,23.242758 C47.2281552,22.9824417 46.8024128,22.9271927 46.4328852,23.0978227 L46.4403803,23.0978227 Z" id="Path"></path> </g> </g> </svg> 