<?xml version="1.0" encoding="UTF-8"?> <svg xmlns="http://www.w3.org/2000/svg" xmlns:xlink="http://www.w3.org/1999/xlink" width="100px" height="100px" viewBox="0 0 100 100"> <!-- Generator: Sketch 52.6 (67491) - http://www.bohemiancoding.com/sketch --> <title>Artboard Copy 16</title> <desc>Created with Sketch.</desc> <g id="Artboard-Copy-16" stroke="none" stroke-width="1" fill="none" fill-rule="evenodd"> <circle id="Oval" stroke="#000000" stroke-width="2" cx="50" cy="50" r="47"></circle> <g id="Tilda_Icons_40_Printery_visit_card" transform="translate(20.000000, 31.000000)" fill="#000000"> <path d="M59.9235294,0 L1.07647059,0 C0.481952299,0 0,0.476206221 0,1.06363636 L0,37.9363636 C0,38.5237938 0.481952299,39 1.07647059,39 L59.9235294,39 C60.5180477,39 61,38.5237938 61,37.9363636 L61,1.06363636 C61,0.476206221 60.5180477,0 59.9235294,0 Z M58.8470588,36.8727273 L2.15294118,36.8727273 L2.15294118,2.12727273 L58.8470588,2.12727273 L58.8470588,36.8727273 Z" id="Shape" fill-rule="nonzero"></path> <path d="M8.078125,34 L28.921875,34 C29.517307,34 30,33.486497 30,32.853059 C29.8936733,26.2052267 24.7491914,20.9034025 18.5,21.0013352 C12.2508086,20.9034025 7.10632673,26.2052267 7,32.853059 C7,33.486497 7.482693,34 8.078125,34 Z M18.5,23.2952172 C23.1400299,23.2208176 27.1114938,26.8207059 27.7790625,31.706118 L9.2209375,31.706118 C9.88850623,26.8207059 13.8599701,23.2208176 18.5,23.2952172 Z" id="Shape" fill-rule="nonzero"></path> <path d="M18,19 C21.3137085,19 24,16.0898509 24,12.5 C24,8.91014913 21.3137085,6 18,6 C14.6862915,6 12,8.91014913 12,12.5 C12.0038897,16.088104 14.687904,18.9957861 18,19 Z M18,8.29411765 C20.1441643,8.29411765 21.8823529,10.1771553 21.8823529,12.5 C21.8823529,14.8228447 20.1441643,16.7058824 18,16.7058824 C15.8558357,16.7058824 14.1176471,14.8228447 14.1176471,12.5 C14.121532,10.1789009 15.8574469,8.29832636 18,8.29411765 Z" id="Shape" fill-rule="nonzero"></path> <path d="M31.0454545,14 L51.9545455,14 C52.5319341,14 53,13.3284271 53,12.5 C53,11.6715729 52.5319341,11 51.9545455,11 L31.0454545,11 C30.4680659,11 30,11.6715729 30,12.5 C30,13.3284271 30.4680659,14 31.0454545,14 Z" id="Path"></path> <path d="M31.0454545,24 L51.9545455,24 C52.5319341,24 53,23.3284271 53,22.5 C53,21.6715729 52.5319341,21 51.9545455,21 L31.0454545,21 C30.4680659,21 30,21.6715729 30,22.5 C30,23.3284271 30.4680659,24 31.0454545,24 Z" id="Path"></path> </g> </g> </svg> 