<?xml version="1.0" encoding="UTF-8"?> <svg xmlns="http://www.w3.org/2000/svg" xmlns:xlink="http://www.w3.org/1999/xlink" width="100px" height="100px" viewBox="0 0 100 100"> <!-- Generator: Sketch 52.6 (67491) - http://www.bohemiancoding.com/sketch --> <title>Artboard Copy 20</title> <desc>Created with Sketch.</desc> <g id="Artboard-Copy-20" stroke="none" stroke-width="1" fill="none" fill-rule="evenodd"> <circle id="Oval" stroke="#000000" stroke-width="2" cx="50" cy="50" r="47"></circle> <g id="Tilda_Icons_40_Printery_booklet-Copy" transform="translate(22.000000, 27.000000)" fill="#000000"> <path d="M56.6154214,0.224413467 C56.3702016,0.0292250719 56.0491345,-0.0438791916 55.7432528,0.0258279896 L28.2733734,6.18882557 C28.2115548,6.20812382 28.1517572,6.23335023 28.0948191,6.26415109 L28.0124095,6.26415109 L1.2292771,0.142240166 C0.937501049,0.084340667 0.634868589,0.155049724 0.399260574,0.336170739 C0.163652559,0.517291754 0.0180780971,0.791136732 0,1.08723313 L0,36.6340336 C0.00120914086,37.084247 0.296303311,37.481204 0.727951804,37.6132654 L27.4698794,45.8922255 C27.6619434,45.9535516 27.8684178,45.9535516 28.0604818,45.8922255 C28.2872545,46.0100848 28.5519705,46.0322868 28.7953011,45.9538555 L56.2651805,37.6543521 C56.6923822,37.5270381 56.988947,37.1401222 56.9999997,36.6956636 L56.9999997,1.02560315 C57.0002222,0.714220383 56.8587761,0.41954664 56.6154214,0.224413467 Z M2.06024095,2.37461484 L27.4698794,8.18837589 L27.4698794,43.7420242 L2.06024095,35.8807784 L2.06024095,2.37461484 Z M54.9397588,35.9287128 L29.5301203,43.5913731 L29.5301203,7.98294264 L54.9397588,2.30613709 L54.9397588,35.9287128 Z" id="Shape" fill-rule="nonzero"></path> <path d="M34.0466078,19 C34.1464315,19 34.2457485,18.985748 34.3415792,18.9576716 L51.2813617,14.0616819 C51.816231,13.8814366 52.114798,13.3099212 51.9585671,12.7653788 C51.8023362,12.2208363 51.2467711,11.8965851 50.6984421,12.0299167 L33.7586596,16.9259064 C33.25661,17.0729542 32.9379499,17.5676955 33.0101802,18.0879712 C33.0824106,18.6082469 33.5236627,18.9965371 34.0466078,19 Z" id="Path"></path> <path d="M34.0466078,25 C34.1464315,25 34.2457485,24.985748 34.3415792,24.9576716 L51.2813617,20.0616819 C51.816231,19.8814366 52.114798,19.3099212 51.9585671,18.7653788 C51.8023362,18.2208363 51.2467711,17.8965851 50.6984421,18.0299167 L33.7586596,22.9188517 C33.25661,23.0658994 32.9379499,23.5606408 33.0101802,24.0809165 C33.0824106,24.6011922 33.5236627,24.9894823 34.0466078,24.9929453 L34.0466078,25 Z" id="Path"></path> <path d="M34.0466078,31 C34.1464315,31 34.2457485,30.985748 34.3415792,30.9576716 L51.2813617,26.0616819 C51.816231,25.8814366 52.114798,25.3099212 51.9585671,24.7653788 C51.8023362,24.2208363 51.2467711,23.8965851 50.6984421,24.0299167 L33.7586596,28.9259064 C33.25661,29.0729542 32.9379499,29.5676955 33.0101802,30.0879712 C33.0824106,30.6082469 33.5236627,30.9965371 34.0466078,31 Z" id="Path"></path> </g> </g> </svg> 