<?xml version="1.0" encoding="UTF-8"?> <svg xmlns="http://www.w3.org/2000/svg" xmlns:xlink="http://www.w3.org/1999/xlink" width="100px" height="100px" viewBox="0 0 100 100"> <!-- Generator: Sketch 52.6 (67491) - http://www.bohemiancoding.com/sketch --> <title>Artboard Copy 23</title> <desc>Created with Sketch.</desc> <g id="Artboard-Copy-23" stroke="none" stroke-width="1" fill="none" fill-rule="evenodd"> <circle id="Oval" stroke="#000000" stroke-width="2" cx="50" cy="50" r="47"></circle> <g id="Tilda_Icons_13ph_photocamera-Copy" transform="translate(25.000000, 20.000000)" fill="#000000" fill-rule="nonzero"> <path d="M47.8869707,11.6903921 L39.452435,11.6903921 L33.5415077,0.596110648 C33.3456145,0.227969963 32.9723787,0 32.5679781,0 L16.4127294,0 C16.0046187,0 15.6298988,0.231820807 15.4347477,0.603812336 L9.62844509,11.6911623 L1.11302926,11.6911623 C0.497895088,11.6911623 0,12.2079456 0,12.8464155 L0,44.7152301 C0,45.3529299 0.497895088,45.8704833 1.11302926,45.8704833 L21.2195318,45.8704833 L12.3464625,58.1508247 C11.9776788,58.6614466 12.0778515,59.3861755 12.5690684,59.7689494 C12.7694137,59.9245235 13.0031498,60 13.2361439,60 C13.5745048,60 13.9084136,59.8405751 14.1273093,59.5378987 L24.0028469,45.8697131 L24.3330456,45.8697131 L34.2085832,59.5371286 C34.427479,59.8398049 34.7613877,59.9992298 35.0997486,59.9992298 C35.3320007,59.9992298 35.5664789,59.9237533 35.7668242,59.7681792 C36.2580411,59.3854053 36.3582137,58.6606765 35.98943,58.1500546 L27.1163608,45.8697131 L47.8869707,45.8697131 C48.5013629,45.8697131 49,45.3521597 49,44.7144599 L49,12.8456453 C49,12.2071754 48.5013629,11.6903921 47.8869707,11.6903921 Z M46.7739415,43.5592067 L2.22605851,43.5592067 L2.22605851,14.0008985 L10.2903265,14.0008985 C10.6984372,14.0008985 11.0731571,13.7690777 11.2683082,13.3970862 L17.0746108,2.30973622 L31.9112908,2.30973622 L37.8222182,13.4040177 C38.0181113,13.7721584 38.3913471,14.0001284 38.7957478,14.0001284 L46.7731995,14.0001284 L46.7731995,43.5592067 L46.7739415,43.5592067 Z" id="Shape"></path> <path d="M24.0036014,15 C19.0386555,15 15,19.4867437 15,25.0011997 C15,30.5148558 19.0386555,35 24.0036014,35 C28.9642257,35 33,30.5148558 33,25.0011997 C33,19.4875435 28.964946,15.0007998 24.0036014,15 Z M24.0036014,32.6006718 C20.2307323,32.6006718 17.1608643,29.1912265 17.1608643,25.0011997 C17.1608643,20.8095733 20.2307323,17.3993282 24.0036014,17.3993282 C27.7721489,17.400128 30.8391357,20.8103731 30.8391357,25.0011997 C30.8391357,29.1912265 27.7728691,32.6006718 24.0036014,32.6006718 Z" id="Shape"></path> </g> </g> </svg> 