<?xml version="1.0" encoding="UTF-8"?> <svg xmlns="http://www.w3.org/2000/svg" xmlns:xlink="http://www.w3.org/1999/xlink" width="100px" height="100px" viewBox="0 0 100 100"> <!-- Generator: Sketch 52.6 (67491) - http://www.bohemiancoding.com/sketch --> <title>Artboard Copy 18</title> <desc>Created with Sketch.</desc> <g id="Artboard-Copy-18" stroke="none" stroke-width="1" fill="none" fill-rule="evenodd"> <circle id="Oval" stroke="#000000" stroke-width="2" cx="50" cy="50" r="47"></circle> <g id="Tilda_Icons_40_Printery_books-Copy" transform="translate(24.000000, 22.000000)" fill="#000000" fill-rule="nonzero"> <path d="M52.1906757,4.91644737 C52.0554486,4.85751064 51.9090994,4.82663608 51.7609459,4.82578947 C50.7314727,4.85692179 49.7360125,4.46506804 49.018004,3.74605565 C48.2999955,3.02704326 47.9256403,2.04716629 47.9864865,1.04605263 C47.9864865,0.468333716 47.5054951,0 46.9121622,0 L14.6824324,0 C14.0890995,0 13.6081081,0.468333716 13.6081081,1.04605263 L13.6081081,9.76315789 L1.07432432,9.76315789 C0.480991384,9.76315789 0,10.2314916 0,10.8092105 L0,46.375 C0.00394760067,50.0322932 3.04791513,52.9961563 6.80405405,53 L38.3175676,53 C38.9109005,53 39.3918919,52.5316663 39.3918919,51.9539474 L39.3918919,42.5394737 L51.9256757,42.5394737 C52.5190086,42.5394737 53,42.07114 53,41.4934211 L53,5.92763158 C52.9988064,5.4502415 52.6658201,5.03420252 52.1906757,4.91644737 Z M50.8513514,6.85513158 L50.8513514,39.3036842 L47.9864865,36.1167105 L47.9864865,5.66263158 C48.8169818,6.29875194 49.8052359,6.71011272 50.8513514,6.85513158 Z M19.6959459,40.4473684 C17.9353576,40.4445501 16.3896447,39.3065265 15.9071622,37.6578947 L46.5182432,37.6578947 L49.025,40.4473684 L19.6959459,40.4473684 Z M15.7567568,2.09210526 L45.8378378,2.09210526 L45.8378378,35.5657895 L15.7567568,35.5657895 L15.7567568,2.09210526 Z M2.14864865,11.8552632 L13.6081081,11.8552632 L13.6081081,36.6118421 C13.6120548,39.8839896 16.3353621,42.5356309 19.6959459,42.5394737 L32.2297297,42.5394737 L32.2297297,45.3289474 L2.14864865,45.3289474 L2.14864865,11.8552632 Z M2.27756757,47.4210526 L32.7382432,47.4210526 L35.8752703,50.9078947 L6.80405405,50.9078947 C4.64892794,50.9038788 2.77744786,49.4622406 2.27756757,47.4210526 Z M37.2432432,49.2551316 L34.3783784,46.0681579 L34.3783784,42.5394737 L37.2432432,42.5394737 L37.2432432,49.2551316 Z" id="Shape"></path> <path d="M23.0961538,27 L39.9038462,27 C40.5092352,27 41,26.5350649 41,25.9615385 L41,10.0384615 C41,9.46493507 40.5092352,9 39.9038462,9 L23.0961538,9 C22.4907648,9 22,9.46493507 22,10.0384615 L22,25.9615385 C22,26.5350649 22.4907648,27 23.0961538,27 Z M24.1923077,11.0769231 L38.8076923,11.0769231 L38.8076923,24.9230769 L24.1923077,24.9230769 L24.1923077,11.0769231 Z" id="Shape"></path> </g> </g> </svg> 