<?xml version="1.0" encoding="UTF-8"?> <svg xmlns="http://www.w3.org/2000/svg" xmlns:xlink="http://www.w3.org/1999/xlink" width="100px" height="100px" viewBox="0 0 100 100"> <!-- Generator: Sketch 52.6 (67491) - http://www.bohemiancoding.com/sketch --> <title>Artboard Copy 19</title> <desc>Created with Sketch.</desc> <g id="Artboard-Copy-19" stroke="none" stroke-width="1" fill="none" fill-rule="evenodd"> <circle id="Oval" stroke="#000000" stroke-width="2" cx="50" cy="50" r="47"></circle> <g id="Tilda_Icons_40_Printery_format-Copy" transform="translate(28.000000, 22.000000)" fill="#000000" fill-rule="nonzero"> <path d="M43.8934426,0 L1.10655738,0 C0.495422613,0 0,0.494843171 0,1.10526316 L0,54.8947368 C0,55.5051568 0.495422613,56 1.10655738,56 L43.8934426,56 C44.5045774,56 45,55.5051568 45,54.8947368 L45,1.10526316 C45,0.494843171 44.5045774,0 43.8934426,0 Z M42.7868852,26.7621053 L23.6065574,26.6515789 L23.6065574,2.21052632 L42.7868852,2.21052632 L42.7868852,26.7621053 Z M2.21311475,16.2105263 L21.3934426,16.2105263 L21.3934426,26.6442105 L2.21311475,26.5263158 L2.21311475,16.2105263 Z M21.3934426,14 L13.2786885,14 L13.2786885,2.21052632 L21.3934426,2.21052632 L21.3934426,14 Z M11.0655738,2.21052632 L11.0655738,14 L2.21311475,14 L2.21311475,2.21052632 L11.0655738,2.21052632 Z M2.21311475,53.7894737 L2.21311475,28.7368421 L42.7868852,28.9652632 L42.7868852,53.7894737 L2.21311475,53.7894737 Z" id="Shape"></path> <path d="M22.3237635,36.6718081 C22.1533062,36.2656439 21.7559278,36.000978 21.3150881,36 C20.8596656,36.0104227 20.4581406,36.301105 20.3064127,36.7302262 L16.0743615,47.442644 C15.8543569,48.0133033 16.1390608,48.6540927 16.7102656,48.8738873 C17.2814704,49.0936819 17.9228724,48.8092498 18.142877,48.2385905 L19.1003878,45.7266125 L23.7709935,45.7266125 L24.8673798,48.3189154 C25.1035316,48.8835253 25.7531147,49.149976 26.3182643,48.9140497 C26.8834139,48.6781234 27.1501193,48.0291607 26.9139676,47.4645508 L22.3237635,36.6718081 Z M19.9628783,43.535934 L21.3516343,40.0016394 L22.8134827,43.535934 L19.9628783,43.535934 Z" id="Shape"></path> </g> </g> </svg> 